name rise42.5664peak47.7979fall81.9185.mot
datacolumns 19
datarows 26
range 13.19494700000000 13.23661500000000
endheader
time	ground_force1_vx	ground_force1_vy	ground_force1_vz	ground_force1_px	ground_force1_py	ground_force1_pz	ground_force2_vx	ground_force2_vy	ground_force2_vz	ground_force2_px	ground_force2_py	ground_force2_pz	ground_torque1_x	ground_torque1_y	ground_torque1_z	ground_torque2_x	ground_torque2_y	ground_torque2_z	
13.19494700000000	-41.55156000000000	818.27334099999996	49.80091700000000	0.09794700000000	0.00000000000000	0.09106700000000	-1.29797400000000	3.53943200000000	0.90673100000000	0.00000000000000	0.00000000000000	0.00000000000000	0.00000000000000	17.14786600000000	0.00000000000000	0.00000000000000	0.23279600000000	0.00000000000000	
13.19661100000000	-42.24811000000000	817.14968299999998	49.84639000000000	0.09701100000000	0.00000000000000	0.09104100000000	-2.11088800000000	6.81608400000000	1.58194100000000	0.00000000000000	0.00000000000000	0.00000000000000	0.00000000000000	17.10866100000000	0.00000000000000	0.00000000000000	0.42251500000000	0.00000000000000	
13.19828000000000	-42.95855000000000	815.89851799999997	49.87132500000000	0.09607500000000	0.00000000000000	0.09101200000000	-3.03738300000000	10.77453300000000	2.37319400000000	0.00000000000000	0.00000000000000	0.00000000000000	0.00000000000000	17.06906600000000	0.00000000000000	0.00000000000000	0.64757400000000	0.00000000000000	
13.19994600000000	-43.68273900000000	814.51693299999999	49.87488700000000	0.09514000000000	0.00000000000000	0.09098000000000	-4.05140700000000	15.37260400000000	3.26464400000000	0.00000000000000	0.00000000000000	0.00000000000000	0.00000000000000	17.02913200000000	0.00000000000000	0.00000000000000	0.90423900000000	0.00000000000000	
13.20162000000000	-44.42046000000000	813.00202300000001	49.85627000000000	0.09420600000000	0.00000000000000	0.09094500000000	-5.11982200000000	20.53803300000000	4.23426900000000	0.00000000000000	0.00000000000000	0.00000000000000	0.00000000000000	16.98890500000000	0.00000000000000	0.00000000000000	1.18699700000000	0.00000000000000	
13.20328600000000	-45.17141900000000	811.35089600000003	49.81470500000000	0.09327400000000	0.00000000000000	0.09090800000000	-6.20457200000000	26.17390900000000	5.25533000000000	0.30604000000000	0.00000000000000	-0.06813600000000	0.00000000000000	16.94842700000000	0.00000000000000	0.00000000000000	2.67451000000000	0.00000000000000	
13.20494500000000	-45.93524100000000	809.56067199999995	49.74945800000000	0.09234200000000	0.00000000000000	0.09086700000000	-7.26545100000000	32.16679800000000	6.29836700000000	0.31081300000000	0.00000000000000	-0.06845300000000	0.00000000000000	16.90773100000000	0.00000000000000	0.00000000000000	3.26249200000000	0.00000000000000	
13.20661800000000	-46.71146800000000	807.62849000000006	49.65983600000000	0.09141300000000	0.00000000000000	0.09082400000000	-8.26312600000000	38.39647500000000	7.33346300000000	0.31512800000000	0.00000000000000	-0.06875300000000	0.00000000000000	16.86684400000000	0.00000000000000	0.00000000000000	3.86164900000000	0.00000000000000	
13.20828600000000	-47.49956300000000	805.55150400000002	49.54518900000000	0.09048400000000	0.00000000000000	0.09077700000000	-9.16200500000000	44.74587000000000	8.33247600000000	0.31904900000000	0.00000000000000	-0.06904000000000	0.00000000000000	16.82578600000000	0.00000000000000	0.00000000000000	4.45677800000000	0.00000000000000	
13.20995100000000	-48.29889900000000	803.32689400000004	49.40491100000000	0.08955700000000	0.00000000000000	0.09072800000000	-9.93256600000000	51.10991300000000	9.27093700000000	0.32262700000000	0.00000000000000	-0.06931700000000	0.00000000000000	16.78456800000000	0.00000000000000	0.00000000000000	5.03409700000000	0.00000000000000	
13.21161900000000	-49.10876700000000	800.95186600000000	49.23844500000000	0.08863200000000	0.00000000000000	0.09067500000000	-10.55294000000000	57.40234000000000	10.12943200000000	0.32590500000000	0.00000000000000	-0.06958500000000	0.00000000000000	16.74319500000000	0.00000000000000	0.00000000000000	5.58208100000000	0.00000000000000	
13.21328000000000	-49.92837000000000	798.42365700000005	49.04528400000000	0.08770800000000	0.00000000000000	0.09061900000000	-11.00964800000000	63.55998900000000	10.89437100000000	0.32891800000000	0.00000000000000	-0.06984600000000	0.00000000000000	16.70166200000000	0.00000000000000	0.00000000000000	6.09199800000000	0.00000000000000	
13.21494500000000	-50.75682300000000	795.73953900000004	48.82497500000000	0.08678600000000	0.00000000000000	0.09056000000000	-11.29755200000000	69.54452300000000	11.55817100000000	0.33169700000000	0.00000000000000	-0.07010200000000	0.00000000000000	16.65995700000000	0.00000000000000	0.00000000000000	6.55813900000000	0.00000000000000	
13.21661200000000	-51.59315500000000	792.89682600000003	48.57711900000000	0.08586600000000	0.00000000000000	0.09049800000000	-11.41911900000000	75.34183500000000	12.11890900000000	0.33426700000000	0.00000000000000	-0.07035400000000	0.00000000000000	16.61805800000000	0.00000000000000	0.00000000000000	6.97775400000000	0.00000000000000	
13.21827800000000	-52.43630900000000	789.89287899999999	48.30137600000000	0.08494700000000	0.00000000000000	0.09043300000000	-11.38319700000000	80.95955400000000	12.57957500000000	0.33664800000000	0.00000000000000	-0.07060200000000	0.00000000000000	16.57593500000000	0.00000000000000	0.00000000000000	7.35075600000000	0.00000000000000	
13.21994600000000	-53.28513900000000	786.72510999999997	47.99746400000000	0.08403100000000	0.00000000000000	0.09036400000000	-11.20346300000000	86.42319000000001	12.94704700000000	0.33886000000000	0.00000000000000	-0.07084700000000	0.00000000000000	16.53354700000000	0.00000000000000	0.00000000000000	7.67926300000000	0.00000000000000	
13.22161400000000	-54.13841700000000	783.39099099999999	47.66516300000000	0.08311700000000	0.00000000000000	0.09029200000000	-10.89675700000000	91.77148000000000	13.23092700000000	0.34091900000000	0.00000000000000	-0.07109000000000	0.00000000000000	16.49084500000000	0.00000000000000	0.00000000000000	7.96703000000000	0.00000000000000	
13.22328100000000	-54.99482700000000	779.88805900000000	47.30431500000000	0.08220500000000	0.00000000000000	0.09021700000000	-10.48142800000000	97.05145899999999	13.44235600000000	0.34283800000000	0.00000000000000	-0.07133200000000	0.00000000000000	16.44777100000000	0.00000000000000	0.00000000000000	8.21884900000000	0.00000000000000	
13.22494800000000	-55.85297200000000	776.21392400000002	46.91482900000000	0.08129600000000	0.00000000000000	0.09013900000000	-9.97585400000000	102.31368999999999	13.59291000000000	0.34463000000000	0.00000000000000	-0.07157200000000	0.00000000000000	16.40425500000000	0.00000000000000	0.00000000000000	8.43997000000000	0.00000000000000	
13.22661800000000	-56.71137500000000	772.36627699999997	46.49667700000000	0.08038900000000	0.00000000000000	0.09005700000000	-9.39719800000000	107.60803000000000	13.69364800000000	0.34630500000000	0.00000000000000	-0.07181100000000	0.00000000000000	16.36021900000000	0.00000000000000	0.00000000000000	8.63558500000000	0.00000000000000	
13.22828500000000	-57.56847800000000	768.34289600000000	46.04990100000000	0.07948400000000	0.00000000000000	0.08997300000000	-8.76048100000000	112.98015300000000	13.75436700000000	0.34787200000000	0.00000000000000	-0.07204900000000	0.00000000000000	16.31557500000000	0.00000000000000	0.00000000000000	8.81040700000000	0.00000000000000	
13.22994700000000	-58.42264900000000	764.14165800000001	45.57460800000000	0.07858300000000	0.00000000000000	0.08988500000000	-8.07796500000000	118.46897000000000	13.78307800000000	0.34934000000000	0.00000000000000	-0.07228700000000	0.00000000000000	16.27022500000000	0.00000000000000	0.00000000000000	8.96836000000000	0.00000000000000	
13.23161900000000	-59.27218200000000	759.76054699999997	45.07097800000000	0.07768400000000	0.00000000000000	0.08979400000000	-7.35886600000000	124.10499500000000	13.78571400000000	0.35071600000000	0.00000000000000	-0.07252400000000	0.00000000000000	16.22406100000000	0.00000000000000	0.00000000000000	9.11238900000000	0.00000000000000	
13.23328200000000	-60.11530300000000	755.19766300000003	44.53925600000000	0.07678900000000	0.00000000000000	0.08970000000000	-6.60933000000000	129.90960000000001	13.76604000000000	0.35200600000000	0.00000000000000	-0.07276100000000	0.00000000000000	16.17696500000000	0.00000000000000	0.00000000000000	9.24437000000000	0.00000000000000	
13.23495000000000	-60.95017100000000	750.45123300000000	43.97976000000000	0.07589700000000	0.00000000000000	0.08960300000000	-5.83264600000000	135.89504900000000	13.72574400000000	0.35321600000000	0.00000000000000	-0.07299800000000	0.00000000000000	16.12881100000000	0.00000000000000	0.00000000000000	9.36513100000000	0.00000000000000	
13.23661500000000	-61.77488200000000	745.51962400000002	43.39287800000000	0.07500700000000	0.00000000000000	0.08950200000000	-5.02964000000000	142.06518800000001	13.66467000000000	0.35435100000000	0.00000000000000	-0.07323400000000	0.00000000000000	16.07946200000000	0.00000000000000	0.00000000000000	9.47454400000000	0.00000000000000	
